<svg xmlns="http://www.w3.org/2000/svg" xmlns:xlink="http://www.w3.org/1999/xlink" viewBox="0 0 283.46 297.64" xmlns:v="https://vecta.io/nano"><path d="M185.44 52.9H36.12v74.8c0 89.75 74.53 112.84 74.53 112.84s74.8-23.1 74.8-112.84V52.9z" fill="#fff"/><path d="M28.35 44.5h164v81.6c0 97.62-82.14 122.8-82.14 122.8s-81.88-25.2-81.88-122.8V44.5zM185 52.9H35.7v74.8c0 89.75 74.53 112.84 74.53 112.84s74.8-23.1 74.8-112.84V52.9zm-70.4 61.2c34.74 2.1 50.8 37.9 53.16 43.7-2.1-3.42-6.32-5.8-11.05-5.8-5 0-9.47 2.63-11.32 6.32-2.1-3.68-6.32-6.32-11.58-6.32-5 0-9.2 2.63-11.32 6.32-1.58-2.63-4.47-5-7.9-5.8v53.16c0 1.05 0 8.95-5.26 14.2-2.63 2.63-6.05 3.95-10 3.95-10.8 0-15-9.2-15.26-15.26h7.37c0 1.32.53 7.9 7.9 7.9 7.63 0 7.9-9.47 7.9-10.53v-53.42c-3.42 1.05-6.05 3.16-7.63 5.8-2.1-3.68-6.32-6.32-11.58-6.32-5 0-9.2 2.63-11.32 6.32-2.1-3.68-6.32-6.32-11.32-6.32-5.26 0-9.47 2.63-11.58 6.32.8-1.84 16.32-41.85 53.42-44.2v-6.05h7.37v6.04zM98.18 94.36c-1.58 10.8-3.16 13.42-3.16 13.42-1.58 2.9-4.47 4.2-6.32 2.9-2.1-1.05-2.37-4.2-.8-6.84 0 0 1.58-2.9 10.27-9.47zm30-10.26c-1.84 10.8-3.42 13.7-3.42 13.7-1.58 2.63-4.2 3.95-6.32 2.63-1.84-1.05-2.1-4.2-.53-6.84.01-.01 1.58-2.64 10.27-9.48zm12.62-23.95c-1.58 11.05-3.16 13.7-3.16 13.7-1.58 2.63-4.47 3.95-6.32 2.9-2.1-1.05-2.37-4.2-.8-7.1.01 0 1.6-2.63 10.27-9.47zm7.9 33.68c-1.58 11.05-3.16 13.7-3.16 13.7-1.58 2.63-4.47 3.95-6.32 2.9-2.1-1.05-2.37-4.2-.8-7.1 0 .01 1.58-2.62 10.27-9.47zm15.8-28.95c-1.58 10.8-3.16 13.7-3.16 13.7-1.58 2.63-4.47 3.95-6.32 2.9-1.84-1.32-2.37-4.2-.8-7.1 0 .01 1.58-2.62 10.27-9.47zm10.53 29.74c-1.84 10.8-3.42 13.7-3.42 13.7-1.58 2.63-4.47 3.95-6.32 2.9-1.84-1.32-2.1-4.47-.53-7.1 0 .01 1.58-2.62 10.27-9.47zm52.63-27.94L212.28 44.3h14.45l7.92 14.65 8.38-14.65h14L241.8 66.67l16.63 24.75h-14.9l-8.84-15.7-9.63 15.7H210.9l16.75-24.75zm-7.06 36.26h28.12v9.4H220.6v-9.4z"/><use xlink:href="#B"/><path d="M220.6 182.94h28.12v9.4H220.6v-9.4z"/><use xlink:href="#B" y="80"/><path d="M43.3 36.53V4.76h21.04v5.1H49.4v7.57h10.87v5.1H49.4v8.9h15.45v5.1H43.3zm27.2 0V4.76h6.34l12.5 21.65h.1V4.76h5.72v31.77H89.3l-12.98-22.6h-.1v22.62H70.5zm37.2-19.23c4.66 0 8.54-.66 8.54-4.44 0-2.3-1.94-3.78-4.58-3.78-2.68 0-4.5 1.5-6.07 3.17l-3.78-3.43c3.08-3.26 6.43-4.5 9.68-4.5 5.8 0 10.47 2.82 10.47 8.2 0 3.17-1.76 5.54-4.8 6.86 3.78 1.2 5.85 4.1 5.85 8.05 0 6.65-5.63 9.55-11.27 9.55-4.5 0-9.02-2.1-11.22-6.16l4.58-2.6c1.54 2.6 3.65 4 6.7 4 2.82 0 5.5-1.72 5.5-4.8 0-5.2-5.76-5.37-9.6-5.37V17.3zm19.83 6.34l13.55-18.88h6.2v20.07h4.5v4.4h-4.5v7.3h-5.46v-7.3h-14.3v-5.6zm14.3 1.2V10.66h-.1l-9.8 14.17h9.9zm20.5-7.54c4.67 0 8.54-.66 8.54-4.44 0-2.3-1.94-3.78-4.58-3.78-2.68 0-4.5 1.5-6.07 3.17l-3.78-3.43c3.08-3.26 6.42-4.5 9.68-4.5 5.8 0 10.47 2.82 10.47 8.2 0 3.17-1.76 5.54-4.8 6.86 3.78 1.2 5.85 4.1 5.85 8.05 0 6.65-5.63 9.55-11.27 9.55-4.5 0-9.02-2.1-11.22-6.16l4.58-2.6c1.54 2.6 3.65 4 6.7 4 2.82 0 5.5-1.72 5.5-4.8 0-5.2-5.76-5.37-9.6-5.37V17.3z"/><defs><path id="B" d="M227.66 146.68l-15.38-22.37h14.45l7.92 14.65 8.38-14.65h14l-15.24 22.37 16.63 24.75h-14.9l-8.84-15.7-9.63 15.7H210.9l16.75-24.75z"/></defs></svg>